<svg xmlns="http://www.w3.org/2000/svg" xmlns:xlink="http://www.w3.org/1999/xlink" width="106" height="106" viewBox="0 0 106 106"><defs><clipPath id="a"><rect width="48.593" height="75.061" fill="#fff"/></clipPath></defs><circle cx="53" cy="53" r="53" fill="#173e82"/><g transform="translate(29.203 10.492)"><g clip-path="url(#a)"><path d="M29.769,66.957H48.594V29.321H29.769ZM18.893,69.682v-.83q0-9.388,0-18.776c0-1.53-.418-1.948-1.952-1.948q-7.486,0-14.972,0C.426,48.128,0,48.543,0,50.064Q0,59.452,0,68.84c0,.274.024.548.037.841ZM2.764,45.383H16.15V29.312H2.764ZM13.439,26.529a4.4,4.4,0,0,0,.071-.55q.005-9.971-.007-19.942a1.073,1.073,0,0,0-.241-.693C11.506,3.562,9.729,1.8,7.92,0,7.243.447,6.612.906,5.938,1.292A1.059,1.059,0,0,0,5.38,2.369Q5.4,14.06,5.391,25.751v.778Zm16.3,48.514H48.585v-5.3H29.736Zm-29.7.017h18.8v-2.6H.041Z" transform="translate(0)" fill="#fff"/><rect width="18.824" height="37.636" transform="translate(29.769 29.321)" fill="#fff"/><path d="M18.892,377.981H.039c-.014-.294-.037-.567-.037-.841q0-9.388,0-18.776c0-1.521.425-1.936,1.966-1.937q7.486,0,14.972,0c1.534,0,1.952.418,1.952,1.948q0,9.388,0,18.777v.83" transform="translate(0 -308.299)" fill="#fff"/><rect width="13.386" height="16.071" transform="translate(2.764 29.312)" fill="#fff"/><path d="M47.9,26.53H39.855v-.778q0-11.691-.011-23.383A1.059,1.059,0,0,1,40.4,1.293C41.075.907,41.706.448,42.384,0c1.809,1.8,3.586,3.562,5.342,5.344a1.073,1.073,0,0,1,.241.693q.019,9.971.007,19.942a4.4,4.4,0,0,1-.071.55" transform="translate(-34.464 -0.001)" fill="#fff"/><rect width="18.849" height="5.304" transform="translate(29.736 69.739)" fill="#fff"/><rect width="18.8" height="2.595" transform="translate(0.041 72.465)" fill="#fff"/></g></g></svg>