<svg xmlns="http://www.w3.org/2000/svg" xmlns:xlink="http://www.w3.org/1999/xlink" width="106" height="106" viewBox="0 0 106 106"><defs><clipPath id="a"><rect width="58.644" height="58.641" fill="#fff"/></clipPath></defs><circle cx="53" cy="53" r="53" fill="#173e82"/><g transform="translate(23.678 18.702)"><g transform="translate(0 0)" clip-path="url(#a)"><path d="M58.646,18.44V51.194a1.38,1.38,0,0,0-.1.266,8.331,8.331,0,0,1-8.455,7.177q-20.782.011-41.566,0A8.346,8.346,0,0,1,.012,50.172Q-.014,34.828.027,19.485A7.875,7.875,0,0,1,.478,16.8a7.6,7.6,0,0,1,6.9-5.095c1.834-.179,3.7-.074,5.549-.1.221,0,.442,0,.722,0,0-1.216-.055-2.36.01-3.5A8.147,8.147,0,0,1,18.432.844,17.418,17.418,0,0,1,21.08,0H37.572a1.886,1.886,0,0,0,.315.107,8.258,8.258,0,0,1,5.859,3.879,8.944,8.944,0,0,1,1.266,5.248c-.025.774,0,1.548,0,2.372.3,0,.524,0,.747,0,1.829.022,3.668-.065,5.484.092a7.69,7.69,0,0,1,6.638,4.375,16.489,16.489,0,0,1,.769,2.367m-33.779,22.3v8.919H33.81V40.712h8.9v-11.2H33.786V20.622H24.84v8.934H15.946V40.739ZM40.481,11.576c0-1.221.094-2.39-.02-3.539a3.866,3.866,0,0,0-3.884-3.554q-7.244-.045-14.485,0a3.814,3.814,0,0,0-3.809,3.032,26.663,26.663,0,0,0-.042,4.062Z" transform="translate(0 -0.001)" fill="#fff"/></g></g></svg>