<svg xmlns="http://www.w3.org/2000/svg" xmlns:xlink="http://www.w3.org/1999/xlink" width="106" height="106" viewBox="0 0 106 106"><defs><clipPath id="a"><rect width="60.59" height="55.012" fill="#fff"/></clipPath></defs><circle cx="53" cy="53" r="53" fill="#173e82"/><g transform="translate(26 22.331)" clip-path="url(#a)"><path d="M10.887,24.588c3.139,0,6.279-.03,9.418.017,1.055.016,1.506-.29,1.492-1.42-.05-4.185.048-8.373-.043-12.557A10.882,10.882,0,0,0,11.869.039a10.426,10.426,0,0,0-11.5,9.02c-.54,4.806-.254,9.706-.326,14.564-.015,1.027.736.964,1.431.964h9.418m.035,5.947c-3.087,0-6.174.041-9.259-.021C.48,30.489-.024,30.784,0,32.086.076,36.06-.014,40.037.04,44.012A10.794,10.794,0,0,0,10.67,55a10.288,10.288,0,0,0,10.821-9.116c.484-4.764.24-9.6.3-14.409.013-1.021-.764-.945-1.453-.945H10.923M30.44,48.566C36.882,53.858,48.3,53.795,55.5,46.143c7.235-7.688,5.869-19.321,1.427-24.062L30.44,48.566m-4.763-4.845L52.16,17.234c-6.731-5.44-18.392-4.185-24.743,2.718-7.038,7.649-6.132,18.622-1.74,23.769" transform="translate(0 0)" fill="#fff"/><path d="M10.935,24.588H1.517c-.695,0-1.446.063-1.431-.964.072-4.858-.214-9.758.326-14.564a10.426,10.426,0,0,1,11.5-9.02A10.882,10.882,0,0,1,21.8,10.628c.091,4.184-.007,8.372.043,12.557.013,1.13-.437,1.436-1.492,1.42-3.139-.047-6.278-.017-9.418-.017" transform="translate(-0.048 0)" fill="#fff"/><path d="M10.923,88.287h9.416c.689,0,1.465-.076,1.452.945-.06,4.806.184,9.645-.3,14.409a10.289,10.289,0,0,1-10.821,9.116A10.794,10.794,0,0,1,.041,101.764C-.014,97.79.076,93.812,0,89.838c-.025-1.3.479-1.6,1.663-1.573,3.085.062,6.172.021,9.259.021" transform="translate(0 -57.752)" fill="#fff"/><path d="M88.053,90.36l26.485-26.485c4.442,4.741,5.808,16.374-1.427,24.062-7.2,7.652-18.615,7.715-25.058,2.423" transform="translate(-57.614 -41.794)" fill="#fff"/><path d="M67.8,69.927c-4.392-5.147-5.3-16.12,1.74-23.769,6.351-6.9,18.012-8.159,24.743-2.718L67.8,69.927" transform="translate(-42.123 -26.205)" fill="#fff"/></g></svg>