<svg xmlns="http://www.w3.org/2000/svg" xmlns:xlink="http://www.w3.org/1999/xlink" width="106" height="106" viewBox="0 0 106 106"><defs><clipPath id="a"><rect width="49.003" height="69.434" fill="#fff"/></clipPath></defs><circle cx="53" cy="53" r="53" fill="#173e82"/><g transform="translate(31 17.928)"><g clip-path="url(#a)"><path d="M21.293,0c-.5,1.475-1.01,2.944-1.477,4.428a.666.666,0,0,1-.765.547q-8.439-.02-16.878,0c-.42,0-.653-.1-.783-.531C.948,2.956.466,1.48,0,0Z" fill="#fff"/><path d="M12.348,152.519H29.671c.014.226.036.423.036.62q0,18.174,0,36.347a8.674,8.674,0,0,1-17.336.6c-.017-.271-.02-.542-.02-.813q0-18,0-36.008Z" transform="translate(-10.437 -128.914)" fill="#fff"/><path d="M198.67,127c1.6,2.78,3.165,5.417,4.637,8.107a75.945,75.945,0,0,1,4.581,9.874,9.792,9.792,0,0,1-7.048,12.96,9.937,9.937,0,0,1-12.106-9.568,12.843,12.843,0,0,1,1.213-4.831,107.485,107.485,0,0,1,7.733-14.881c.3-.5.6-1,.991-1.661" transform="translate(-159.524 -107.346)" fill="#fff"/><rect width="17.265" height="13.532" transform="translate(1.96 7.506)" fill="#fff"/></g></g></svg>