<svg id="Grupo_109" data-name="Grupo 109" xmlns="http://www.w3.org/2000/svg" xmlns:xlink="http://www.w3.org/1999/xlink" width="77" height="77" viewBox="0 0 77 77">
  <defs>
    <clipPath id="clip-path">
      <rect id="Retângulo_566" data-name="Retângulo 566" width="27.222" height="57.834" fill="#fff"/>
    </clipPath>
  </defs>
  <g id="Componente_17_1" data-name="Componente 17 – 1">
    <circle id="Elipse_32" data-name="Elipse 32" cx="38.5" cy="38.5" r="38.5" fill="#173e82"/>
    <g id="Grupo_106" data-name="Grupo 106" transform="translate(24.822 7.168)">
      <g id="Grupo_105" data-name="Grupo 105" clip-path="url(#clip-path)">
        <path id="Caminho_98" data-name="Caminho 98" d="M20.61,141.262v-.82q0-4.267,0-8.533c0-1.1-.342-1.415-1.533-1.415q-5.448,0-10.9,0c-1.242,0-1.6.318-1.6,1.444q-.005,4.232,0,8.463v.82c-.259.015-.478.039-.7.04q-2.362,0-4.724,0c-1.058,0-1.156-.1-1.159-1.1,0-.047,0-.093,0-.14q0-22.068,0-44.135c0-1.188.037-1.222,1.322-1.222H26.01c1.1,0,1.212.1,1.212,1.123q0,22.172,0,44.345c0,1.023-.112,1.125-1.212,1.125h-5.4m-7.049-32.636c2.739,0,5.479,0,8.218,0,.326,0,.751.046.954-.116.324-.257.711-.688.678-1.013s-.524-.635-.857-.907c-.1-.083-.343-.028-.52-.028H5.218a3.04,3.04,0,0,0-.531.016.988.988,0,0,0-.917.889.926.926,0,0,0,.749,1.072,3.5,3.5,0,0,0,.9.088q4.071.009,8.142,0m.085-9.475H6.264c-.482,0-.967-.026-1.445.014a1,1,0,0,0-1.055.992c-.02.607.366.942.99,1.052a3.538,3.538,0,0,0,.607.017H21.876a4.756,4.756,0,0,0,.532-.011c.664-.075,1.1-.507,1.061-1.069A1.045,1.045,0,0,0,22.4,99.16a5.352,5.352,0,0,0-.608-.009H13.646m-.083,14.8c-2.845,0-5.69-.005-8.536,0-.815,0-1.265.38-1.269,1.007s.444,1,1.254,1.029c.533.017,1.067.005,1.6.005H21.626c.229,0,.458.008.686-.008.741-.051,1.178-.45,1.161-1.047s-.475-.982-1.222-.985c-2.9-.01-5.792,0-8.688,0m.023,9.425q4.23,0,8.46,0c.94,0,1.423-.349,1.427-1.007s-.475-1.014-1.412-1.036c-.127,0-.254,0-.381,0q-8.079,0-16.157,0a4.408,4.408,0,0,0-.984.065.922.922,0,0,0-.777.99.949.949,0,0,0,.834.954,3.644,3.644,0,0,0,.759.033q4.116,0,8.231,0" transform="translate(0 -83.429)" fill="#fff"/>
        <path id="Caminho_99" data-name="Caminho 99" d="M48.3,48.745q3.732,0,7.464,0c.851,0,1.034.166,1.044.932.008.559,0,1.119,0,1.678,0,.511-.255.769-.836.769q-7.616-.007-15.232,0c-.624,0-.862-.274-.84-.823.02-.512,0-1.025,0-1.538,0-.91.114-1.017,1.084-1.018q3.656,0,7.312,0" transform="translate(-34.737 -42.957)" fill="#fff"/>
        <rect id="Retângulo_564" data-name="Retângulo 564" width="3.722" height="8.62" transform="translate(14.61 49.176)" fill="#fff"/>
        <rect id="Retângulo_565" data-name="Retângulo 565" width="3.382" height="8.617" transform="translate(8.895 49.172)" fill="#fff"/>
        <path id="Caminho_100" data-name="Caminho 100" d="M95.251,2.781c0-.582-.018-1.165.006-1.746A1.107,1.107,0,0,1,97.463,1q.059,1.779,0,3.561a1.028,1.028,0,0,1-1.122,1,1.045,1.045,0,0,1-1.088-1.1c-.017-.558,0-1.117,0-1.676" transform="translate(-82.923 0)" fill="#fff"/>
      </g>
    </g>
  </g>
</svg>
