<svg id="Componente_18_1" data-name="Componente 18 – 1" xmlns="http://www.w3.org/2000/svg" xmlns:xlink="http://www.w3.org/1999/xlink" width="77" height="77" viewBox="0 0 77 77">
  <defs>
    <clipPath id="clip-path">
      <rect id="Retângulo_563" data-name="Retângulo 563" width="42.954" height="52.565" fill="#fff"/>
    </clipPath>
  </defs>
  <circle id="Elipse_32" data-name="Elipse 32" cx="38.5" cy="38.5" r="38.5" fill="#173e82"/>
  <g id="Grupo_103" data-name="Grupo 103" transform="translate(16.959 9.855)">
    <g id="Grupo_102" data-name="Grupo 102" transform="translate(0 0)" clip-path="url(#clip-path)">
      <path id="Caminho_94" data-name="Caminho 94" d="M25.424,8.955l-.13-.023a6.809,6.809,0,0,0-2.866-5.744A16.113,16.113,0,0,0,14.563.078C8.973-.633,5.4,3.638,4.522,7.469a10.348,10.348,0,0,0,.282,4.87.794.794,0,0,1-.14.747,1.8,1.8,0,0,0-.323,1,7.014,7.014,0,0,0,1.009,4.06,1.025,1.025,0,0,1,.119.386A12.612,12.612,0,0,0,9.7,25.843c3.486,3.033,7.106,2.851,10.427-.191a13.728,13.728,0,0,0,4.009-7.078,1.336,1.336,0,0,1,.135-.434,6.235,6.235,0,0,0,.971-3.506,3.3,3.3,0,0,0-.4-1.542.991.991,0,0,1-.124-.739c.246-1.131.478-2.264.714-3.4M14.471,33.241A12.733,12.733,0,0,1,13.2,34.549a1.734,1.734,0,0,0-.673,1.926c.714,4,1.341,8.016,2.01,12.025a1.46,1.46,0,0,0,.262.45c.1-.155.267-.3.295-.467q1.059-6.368,2.078-12.741a.93.93,0,0,0-.224-.65c-.549-.648-1.136-1.265-1.74-1.931.676-1.039,1.425-2.187,2.254-3.46a8.758,8.758,0,0,1-5.325-.051c.838,1.291,1.6,2.462,2.337,3.592" transform="translate(6.684 0.002)" fill="#fff"/>
      <path id="Caminho_95" data-name="Caminho 95" d="M18.1,36.331l-3.27-.2A59.682,59.682,0,0,1,3.227,34.479c-.691-.183-1.369-.419-2.048-.653a1.415,1.415,0,0,1-.922-1.09A8.856,8.856,0,0,1,0,30.762a39.418,39.418,0,0,1,1.044-9.255A17.815,17.815,0,0,1,3.55,15.7a7.1,7.1,0,0,1,3.516-2.368c1.817-.7,3.613-1.443,5.417-2.175a1.893,1.893,0,0,0,.574-.33.872.872,0,0,1,1.326.028.744.744,0,0,1,.346.666q-.069,2.824-.1,5.645a2.4,2.4,0,0,0,.142.846q2.854,7.66,5.724,15.312c.036.094.074.191.112.287a.918.918,0,0,0,1.776-.005c.455-1.2.9-2.4,1.352-3.6q2.237-5.975,4.464-11.951a2.561,2.561,0,0,0,.158-.894c-.018-1.883-.033-3.765-.1-5.645-.023-.617.46-.709.8-.925.14-.091.473.005.655.114a26.712,26.712,0,0,0,5.879,2.51,7.646,7.646,0,0,1,4.949,4.342,25.832,25.832,0,0,1,2.193,8.6c.15,1.786.175,3.585.226,5.376a4.357,4.357,0,0,1-.175,1.059,1.762,1.762,0,0,1-1.258,1.347,40.622,40.622,0,0,1-9.537,1.867c-2.228.206-4.469.3-6.7.45a3.674,3.674,0,0,0-.4.076Z" transform="translate(0 16.232)" fill="#fff"/>
      <path id="Caminho_96" data-name="Caminho 96" d="M25.424,8.955c-.236,1.133-.467,2.266-.714,3.4a.981.981,0,0,0,.127.739,3.363,3.363,0,0,1,.4,1.542,6.272,6.272,0,0,1-.973,3.509,1.3,1.3,0,0,0-.135.434,13.721,13.721,0,0,1-4.009,7.076c-3.321,3.041-6.941,3.224-10.427.193A12.626,12.626,0,0,1,5.47,18.528a1.025,1.025,0,0,0-.119-.386,7.01,7.01,0,0,1-1.009-4.06,1.786,1.786,0,0,1,.323-.993.8.8,0,0,0,.14-.747,10.36,10.36,0,0,1-.282-4.873C5.4,3.638,8.973-.633,14.563.078a16.113,16.113,0,0,1,7.866,3.11,6.812,6.812,0,0,1,2.866,5.744l.13.023" transform="translate(6.684 0.002)" fill="#fff"/>
      <path id="Caminho_97" data-name="Caminho 97" d="M9.744,15.262c-.737-1.131-1.5-2.3-2.337-3.592a8.758,8.758,0,0,0,5.325.051c-.828,1.273-1.578,2.421-2.254,3.46.6.666,1.192,1.283,1.74,1.931a.93.93,0,0,1,.224.65Q11.429,24.134,10.364,30.5c-.028.168-.193.312-.295.467a1.46,1.46,0,0,1-.262-.45C9.14,26.512,8.512,22.5,7.8,18.5a1.734,1.734,0,0,1,.673-1.926,12.732,12.732,0,0,0,1.273-1.308" transform="translate(11.411 17.98)" fill="#fff"/>
    </g>
  </g>
</svg>
