<svg id="Componente_19_1" data-name="Componente 19 – 1" xmlns="http://www.w3.org/2000/svg" xmlns:xlink="http://www.w3.org/1999/xlink" width="77" height="77" viewBox="0 0 77 77">
  <defs>
    <clipPath id="clip-path">
      <rect id="Retângulo_567" data-name="Retângulo 567" width="27.91" height="49.368" fill="#fff"/>
    </clipPath>
  </defs>
  <circle id="Elipse_32" data-name="Elipse 32" cx="38.5" cy="38.5" r="38.5" fill="#173e82"/>
  <g id="Grupo_108" data-name="Grupo 108" transform="translate(24.822 14.033)">
    <g id="Grupo_107" data-name="Grupo 107" transform="translate(0)" clip-path="url(#clip-path)">
      <path id="Caminho_101" data-name="Caminho 101" d="M24.83,49.368H3.081A9.333,9.333,0,0,1,2.051,49,3.618,3.618,0,0,1,0,45.471Q.007,25.693,0,5.918C0,5.181,0,4.441,0,3.7A3.466,3.466,0,0,1,1.482.722,9.349,9.349,0,0,1,3.081,0H24.83a8.464,8.464,0,0,1,1.028.371A3.616,3.616,0,0,1,27.908,3.9q0,19.606,0,39.214c0,.85.007,1.7,0,2.552a3.466,3.466,0,0,1-1.477,2.981,9.617,9.617,0,0,1-1.6.724m.353-43.261H2.73V37.941H25.183ZM13.932,3.924c1.6,0,3.206,0,4.81,0,.571,0,.8-.259.8-.884,0-.6-.218-.845-.771-.845-3.206,0-6.413.009-9.617-.011-.515,0-.744.2-.769.857-.022.623.22.884.794.884,1.585,0,3.173,0,4.758,0m.034,37.323a2.28,2.28,0,1,0,2.28,2.3,2.289,2.289,0,0,0-2.28-2.3" transform="translate(0 0)" fill="#fff"/>
    </g>
  </g>
</svg>
