<svg xmlns="http://www.w3.org/2000/svg" width="46.998" height="98.986" viewBox="0 0 46.998 98.986">
  <g id="Icon_ionic-ios-man" data-name="Icon ionic-ios-man" transform="translate(-9.984 -1.125)">
    <path id="Caminho_142" data-name="Caminho 142" d="M24.19,19.809h-.041a9.342,9.342,0,1,1,9.383-9.342,9.364,9.364,0,0,1-9.342,9.342Z" transform="translate(9.242)" fill="#fff"/>
    <path id="Caminho_143" data-name="Caminho 143" d="M26.317,86.656c-2.97,0-5.568-2.165-5.568-6.269l.206-57.247H18.893V44.793a5,5,0,0,1-1.32,3.774,4.382,4.382,0,0,1-6.269,0,4.968,4.968,0,0,1-1.32-3.774V19.717A11.912,11.912,0,0,1,12.83,11.8a10.532,10.532,0,0,1,8.043-3.712H46.094a10.483,10.483,0,0,1,8.043,3.733,11.859,11.859,0,0,1,2.846,7.9V44.793a4.888,4.888,0,0,1-1.361,3.774,4.635,4.635,0,0,1-6.393,0,4.888,4.888,0,0,1-1.361-3.774V23.14H46.011V80.387c0,4.063-2.763,6.269-5.733,6.269-2.763,0-5.424-1.918-5.65-6.145V51.392H32.153V80.449C32.009,84.512,29.307,86.656,26.317,86.656Z" transform="translate(0 13.455)" fill="#fff"/>
  </g>
</svg>
