<svg id="Componente_20_1" data-name="Componente 20 – 1" xmlns="http://www.w3.org/2000/svg" width="106" height="106" viewBox="0 0 106 106">
  <circle id="Elipse_21" data-name="Elipse 21" cx="53" cy="53" r="53" fill="#173e82"/>
  <g id="Grupo_62" data-name="Grupo 62" transform="translate(-70.706 -194.754)">
    <path id="Caminho_1" data-name="Caminho 1" d="M164.7,278.438h-.12c-1.485-1.395-2.994-2.766-4.442-4.2a.883.883,0,0,0-1.342-.107,26.074,26.074,0,0,1-10.8,4.014c-.907.127-1.822.2-2.733.292h-1.92a5.421,5.421,0,0,0-.585-.092,26.173,26.173,0,0,1-7.264-1.432,27.084,27.084,0,0,1-6-2.959c-.219-.143-.4-.3-.671-.037-1.59,1.516-3.2,3.015-4.8,4.52h-.12l-2.44-2.565,4.719-4.383c-8.169-8.238-11.143-17.9-7.295-28.894,3.838-10.969,12.1-16.825,23.568-18.279v-3.6a28.88,28.88,0,0,0-8.34,1.637L132.914,219c5.985-2.6,18.215-2.569,22.757.038l-1.194,3.316a28.481,28.481,0,0,0-8.382-1.63V224.3c11.541,1.5,19.786,7.344,23.616,18.295,3.852,11.014.863,20.684-7.294,28.9l4.719,4.385ZM124.5,251.4a19.794,19.794,0,1,0,19.822-19.88A19.885,19.885,0,0,0,124.5,251.4Z" transform="translate(-20.575 0)" fill="#fff"/>
    <path id="Caminho_2" data-name="Caminho 2" d="M410.068,266.9a30.975,30.975,0,0,1,11.365,13.6,8.929,8.929,0,0,0-11.365-13.6Z" transform="translate(-269.425 -41.112)" fill="#fff"/>
    <path id="Caminho_3" data-name="Caminho 3" d="M93,273.467c.2-.727.339-1.473.6-2.177a8.927,8.927,0,0,1,13.008-4.554,1.661,1.661,0,0,1,.177.161,30.968,30.968,0,0,0-11.348,13.608c-.185-.2-.334-.343-.46-.5a8.859,8.859,0,0,1-1.86-4.288,1.773,1.773,0,0,0-.113-.327Z" transform="translate(0 -41.101)" fill="#fff"/>
    <path id="Caminho_6" data-name="Caminho 6" d="M410.068,266.9a8.929,8.929,0,0,1,11.365,13.6A30.975,30.975,0,0,0,410.068,266.9Z" transform="translate(-269.425 -41.112)" fill="#fff"/>
    <path id="Caminho_7" data-name="Caminho 7" d="M196.913,345.865l2.573-2.557-2.335-2.274a15.567,15.567,0,0,1,20-.149l-2.284,2.237,2.616,2.618,2.279-2.325a16.04,16.04,0,0,1,3.433,8.261H219.84v3.735H223.2a16.036,16.036,0,0,1-3.44,8.291l-2.234-2.48-2.648,2.649,2.473,2.24a16.172,16.172,0,0,1-8.324,3.5v-3.356h-3.607V369.6a16.014,16.014,0,0,1-8.281-3.418l2.385-2.262-2.559-2.561-2.221,2.284c-1.548-1.263-3.417-5.683-3.5-8.191h3.308v-3.738h-3.239c-.274-1.829,1.69-6.645,3.331-8.212Zm1.305,9.552c1.165,0,2.281.021,3.394-.011a.689.689,0,0,1,.751.493,5.335,5.335,0,0,0,6.918,2.681,5.432,5.432,0,0,0,2.943-6.931,5.576,5.576,0,0,0-3.244-3.235v-7.466h-3.587v7.477a5.058,5.058,0,0,0-2.919,2.564,1.068,1.068,0,0,1-1.214.723c-1.007-.055-2.02-.015-3.043-.015Z" transform="translate(-83.479 -102.183)" fill="#fff"/>
    <path id="Caminho_8" data-name="Caminho 8" d="M287.269,436.741a1.824,1.824,0,0,1-1.769-1.822,1.8,1.8,0,1,1,3.591.054A1.824,1.824,0,0,1,287.269,436.741Z" transform="translate(-163.575 -183.513)" fill="#fff"/>
  </g>
</svg>
