<svg id="Componente_19_1" data-name="Componente 19 – 1" xmlns="http://www.w3.org/2000/svg" width="106" height="106" viewBox="0 0 106 106">
  <circle id="Elipse_20" data-name="Elipse 20" cx="53" cy="53" r="53" fill="#173e82"/>
  <g id="Grupo_73" data-name="Grupo 73" transform="translate(-39.473 -167.164)">
    <path id="Caminho_49" data-name="Caminho 49" d="M259.423,617.192h-18.2a4.155,4.155,0,0,1,4.262-5.218q4.829.152,9.666,0C257.766,611.894,259.976,613.925,259.423,617.192Z" transform="translate(-157.85 -368.358)" fill="#fff"/>
    <path id="Caminho_50" data-name="Caminho 50" d="M426.142,617.024H408.448a3.957,3.957,0,0,1,3.95-5.06c3.108-.017,6.221.094,9.325-.033C424.637,611.813,426.606,613.887,426.142,617.024Z" transform="translate(-300.674 -368.249)" fill="#fff"/>
    <g id="Grupo_71" data-name="Grupo 71" transform="translate(58 181.89)">
      <path id="Caminho_52" data-name="Caminho 52" d="M93.816,181.89c.02.01.041.031.06.03,1.54-.114,2.016.842,2.152,2.14,0,.022.02.043.02.064,0,1.4.816,1.956,2.1,2.116a.78.78,0,0,0,.8-.263c.492-.553,1-1.093,1.515-1.625a1.22,1.22,0,0,1,1.692-.283q1.763.974,3.486,2.021a1.174,1.174,0,0,1,.593,1.6c-.2.71-.462,1.408-.621,2.127a1.038,1.038,0,0,0,.2.8c1.186,1.295,1.2,1.284,2.861.773,1.983-.61,2-.621,3.114,1.152.546.871,1.019,1.79,1.509,2.7a1.2,1.2,0,0,1-.27,1.583c-.557.522-1.138,1.021-1.655,1.579-.172.186-.18.525-.26.8-.005.017.019.042.02.063.068,1.325.786,1.852,2.085,2.07,1.845.31,2.165.2,2.16,2.56,0,1.031-.007,2.062-.043,3.091a1.17,1.17,0,0,1-.986,1.193c-.742.171-1.479.366-2.225.519a.92.92,0,0,0-.715.656,2.128,2.128,0,0,0,.8,2.849c1.5,1.247,1.679,1.161.609,3.344,1.4,1.4,2.8,2.83,4.225,4.223a2.225,2.225,0,0,1,.722,1.728c-.023,2.738,0,5.476-.017,8.214a.588.588,0,0,0,.514.694,6.825,6.825,0,0,1,3.7,10.914c-.066.088-.127.179-.224.316a3.093,3.093,0,0,0,.442.161,5.7,5.7,0,0,1,4.746,5.627c.018.65.008,1.3,0,1.952-.009,1.057-.412,1.466-1.473,1.467q-6.8.006-13.6,0c-1.369,0-2.737,0-4.106,0-1.09,0-1.507-.406-1.508-1.5a9.143,9.143,0,0,1,.625-4.476,5.616,5.616,0,0,1,4.1-3.06,2,2,0,0,0,.311-.095,25.626,25.626,0,0,1-1.325-2.99,6.746,6.746,0,0,1,4.607-8.2c.745-.2.918-.509.9-1.227-.045-2.4-.029-4.8-.007-7.2a1.406,1.406,0,0,0-.471-1.116c-1.127-1.093-2.226-2.214-3.325-3.313-.071.016-.131.011-.152.037-.972,1.231-.982,1.234-2.472.775a1.721,1.721,0,0,1-.384-.12c-1.266-.765-2.169-.224-2.9.826a.98.98,0,0,0-.166.7c.187.76.442,1.5.673,2.253a1.159,1.159,0,0,1-.52,1.457q-1.842,1.107-3.718,2.156a1.127,1.127,0,0,1-1.466-.26c-.557-.585-1.089-1.2-1.671-1.754-.156-.15-.453-.154-.686-.222-.019-.006-.043.01-.065.012-1.3.107-2.086.726-2.1,2.115a.623.623,0,0,1-.038.129c-.436,1.842-.436,1.842-2.376,2.086,0,.714-.034,1.447.028,2.172.013.149.369.326.6.389a6.873,6.873,0,0,1,4.978,7.863,7.061,7.061,0,0,1-1.6,3.326,15.59,15.59,0,0,1,2.156.8,5.641,5.641,0,0,1,3.028,5.05c.027.672.019,1.347,0,2.02a1.215,1.215,0,0,1-1.377,1.367q-8.986.01-17.973,0c-.654,0-1.218-.244-1.275-.936a9.106,9.106,0,0,1,.546-5.009,5.526,5.526,0,0,1,4.141-3.1,2.419,2.419,0,0,0,.3-.083,23.935,23.935,0,0,1-1.31-2.893,6.745,6.745,0,0,1,4.667-8.331c.6-.16.875-.39.794-1.04a13.819,13.819,0,0,1-.013-1.62c-.291-.022-.55-.04-.809-.062a1.286,1.286,0,0,1-1.392-1.187c-.173-.719-.309-1.449-.527-2.153a1.084,1.084,0,0,0-.535-.546,2.087,2.087,0,0,0-2.9.732c-1.323,1.642-1.426,1.585-3.294.589-.888-.473-1.741-1.017-2.589-1.56a1.19,1.19,0,0,1-.56-1.613c.207-.71.46-1.408.625-2.127a1.115,1.115,0,0,0-.187-.754,1.956,1.956,0,0,0-2.916-.783,1.27,1.27,0,0,1-.258.074c-1.591.488-1.591.488-2.659-.858-.9.911-1.738,1.882-2.7,2.7a3.139,3.139,0,0,0-1.157,2.8c.093,2.2.033,4.4.021,6.6,0,.379.053.6.494.711A6.842,6.842,0,0,1,73.7,241.334c-.069.086-.125.18-.188.272a15.4,15.4,0,0,1,2.13.788,5.637,5.637,0,0,1,3.04,5.109c.022.673.026,1.347,0,2.019a1.191,1.191,0,0,1-1.352,1.318c-5.991.007-11.982,0-17.972.01A1.5,1.5,0,0,1,58,250.035v-3.367c.041-.125.092-.248.121-.376a5.594,5.594,0,0,1,3.041-3.968,16.042,16.042,0,0,1,2.011-.711c-.057-.086-.1-.163-.155-.231a6.842,6.842,0,0,1,3.71-10.99c.471-.114.458-.385.457-.736,0-2.738.007-5.476-.01-8.214a2.059,2.059,0,0,1,.666-1.615c.765-.725,1.5-1.488,2.243-2.232.695-.692,1.393-1.38,2.065-2.046-.852-1.755-1.284-1.889.571-3.342a2.081,2.081,0,0,0,.754-2.9,1.176,1.176,0,0,0-.6-.573c-.725-.226-1.476-.373-2.219-.538a1.227,1.227,0,0,1-1.061-1.278c-.024-1.03-.064-2.063-.028-3.091.072-2.063.076-2.157,2.148-2.5,1.3-.214,2.023-.735,2.088-2.065,0-.043.05-.091.04-.126-.066-.235-.076-.531-.228-.689-.542-.567-1.133-1.086-1.706-1.624a1.2,1.2,0,0,1-.273-1.582c.491-.906.962-1.825,1.508-2.7,1.112-1.774,1.13-1.762,3.114-1.153,1.661.51,1.673.521,2.86-.775a1.037,1.037,0,0,0,.2-.8c-.158-.72-.414-1.418-.618-2.129a1.167,1.167,0,0,1,.594-1.6q1.721-1.048,3.486-2.022a1.221,1.221,0,0,1,1.692.288c.53.549,1.026,1.132,1.576,1.659a.994.994,0,0,0,.674.206,2.035,2.035,0,0,0,2.2-2.166c.065-1.311.611-2.247,2.144-2.136.019,0,.04-.019.06-.029Zm17.147,13.725c-.371-.638-.687-1.232-1.061-1.787a.663.663,0,0,0-.57-.212c-.716.177-1.415.422-2.124.632a1.308,1.308,0,0,1-1.424-.313c-.783-.8-1.581-1.588-2.374-2.38a1.171,1.171,0,0,1-.344-1.284c.1-.3.18-.6.271-.9.571-1.879.566-1.869-1.213-2.772a.514.514,0,0,0-.742.136c-.443.506-.939.967-1.375,1.478a1.457,1.457,0,0,1-1.74.466,19.385,19.385,0,0,0-2.592-.694,1.532,1.532,0,0,1-1.418-1.373c-.036-.221-.1-.437-.151-.655-.427-1.84-.427-1.826-2.321-1.766a.609.609,0,0,0-.7.6c-.123.7-.331,1.394-.485,2.094a1.282,1.282,0,0,1-1.029,1.025c-1.017.264-2.034.533-3.047.814a1.348,1.348,0,0,1-1.515-.429c-.174-.2-.366-.395-.55-.591-1.318-1.4-1.31-1.389-2.944-.356a.579.579,0,0,0-.282.819c.237.675.405,1.375.628,2.056a1.221,1.221,0,0,1-.349,1.345c-.779.774-1.562,1.544-2.327,2.331a1.25,1.25,0,0,1-1.281.384c-.3-.076-.6-.175-.9-.266-1.908-.577-1.9-.572-2.815,1.207a.5.5,0,0,0,.135.735c.525.455,1.008.959,1.533,1.415a1.428,1.428,0,0,1,.433,1.688,26.674,26.674,0,0,0-.741,2.719,1.408,1.408,0,0,1-1.265,1.271c-.243.036-.48.11-.72.167-1.884.455-1.866.454-1.757,2.394.025.439.212.569.583.644.68.138,1.354.309,2.032.459a1.34,1.34,0,0,1,1.1,1.117c.221.959.469,1.915.77,2.851a1.475,1.475,0,0,1-.486,1.736c-.622.543-1.209,1.127-1.828,1.71.351.606.692,1.159.994,1.732.187.354.4.388.761.258.631-.228,1.292-.372,1.924-.6a1.41,1.41,0,0,1,1.677.471,13.85,13.85,0,0,0,1.7,1.718,1.9,1.9,0,0,1,.674,2.4c-.722,2.155-.675,2.171,1.4,3.163a.669.669,0,0,0,.159.024c.587-.624,1.19-1.255,1.783-1.9a1.273,1.273,0,0,1,1.393-.4c1.033.293,2.068.581,3.111.836a1.289,1.289,0,0,1,1.054,1.075c.155.723.312,1.447.526,2.153a.734.734,0,0,0,.5.438c.667.053,1.34.021,2.059.021.21-.877.432-1.718.609-2.569a1.368,1.368,0,0,1,1.155-1.143c.98-.229,1.955-.485,2.918-.777a1.334,1.334,0,0,1,1.517.386c.589.643,1.195,1.272,1.825,1.94.582-.333,1.137-.667,1.708-.973a.534.534,0,0,0,.292-.761c-.22-.611-.367-1.247-.589-1.857a1.478,1.478,0,0,1,.491-1.795,13.04,13.04,0,0,0,1.716-1.7,1.849,1.849,0,0,1,2.351-.639c2.191.744,2.207.7,3.2-1.435a.6.6,0,0,0,.008-.129c-.6-.569-1.235-1.171-1.875-1.762a1.3,1.3,0,0,1-.416-1.447c.306-1.029.564-2.073.831-3.113a1.229,1.229,0,0,1,.973-.995c.306-.067.609-.15.914-.219,1.995-.452,2.005-.453,1.768-2.487a.75.75,0,0,0-.444-.5c-.684-.21-1.386-.364-2.087-.511a1.364,1.364,0,0,1-1.152-1.145c-.224-.981-.49-1.954-.786-2.916a1.371,1.371,0,0,1,.423-1.57C109.681,196.839,110.292,196.247,110.964,195.615Zm-10.516,52.9a3.649,3.649,0,0,0-3.743-4.573q-4.232.13-8.471,0a3.641,3.641,0,0,0-3.735,4.573Zm-40.09,0H76.3a3.574,3.574,0,0,0-3.65-4.554q-4.3-.014-8.6,0a4.61,4.61,0,0,0-1.129.112C61.011,244.569,60.056,246.222,60.358,248.515Zm64.232.007c.418-2.826-1.356-4.7-3.982-4.588-2.8.114-5.6.014-8.4.029a3.565,3.565,0,0,0-3.559,4.559Zm-32.2-16.05a4.59,4.59,0,1,0,4.655,4.419A4.584,4.584,0,0,0,92.393,232.473Zm-28.625,4.584a4.584,4.584,0,1,0,4.555-4.587A4.613,4.613,0,0,0,63.767,237.056Zm57.405.074a4.585,4.585,0,1,0-9.169-.12,4.585,4.585,0,0,0,9.169.12Z" transform="translate(-58 -181.89)" fill="#fff"/>
      <path id="Caminho_53" data-name="Caminho 53" d="M74.028,617.55c-.36-2.737.779-4.709,3.054-5.3a5.5,5.5,0,0,1,1.348-.134q5.134-.016,10.267,0c3.084.01,4.942,2.318,4.356,5.434Z" transform="translate(-73.214 -550.484)" fill="#fff"/>
    </g>
    <g id="Grupo_74" data-name="Grupo 74">
      <path id="Caminho_57" data-name="Caminho 57" d="M74.018,621.088c-.306-4.517.662-7.771,2.594-8.741a2.527,2.527,0,0,1,1.145-.22q4.361-.026,8.722-.005c2.62.017,4.2,3.825,3.7,8.967Z" transform="translate(10.245 -403.594)" fill="#fff"/>
      <g id="Grupo_72" data-name="Grupo 72" transform="translate(77.531 189.951)">
        <path id="Caminho_56" data-name="Caminho 56" d="M208.347,267.635a14.931,14.931,0,1,1,14.912-14.982A14.992,14.992,0,0,1,208.347,267.635Zm9.87-7.22a12.585,12.585,0,0,0-19.585-15.805c-4.493,5.343-3.275,12.446-.19,15.765a8.288,8.288,0,0,1,5.12-5,6.863,6.863,0,0,1-2.122-5.055,6.526,6.526,0,0,1,2.267-4.99,6.7,6.7,0,0,1,9.274.035,6.463,6.463,0,0,1,2.168,4.141,6.818,6.818,0,0,1-2.079,5.872A8.278,8.278,0,0,1,218.218,260.414Zm-9.965,4.91a12.637,12.637,0,0,0,7.62-2.5.755.755,0,0,0,.335-.9,5.67,5.67,0,0,0-5.4-4.6c-1.657-.053-3.319-.053-4.976,0a5.676,5.676,0,0,0-5.4,4.6.755.755,0,0,0,.335.9A12.493,12.493,0,0,0,208.252,265.324Zm4.651-14.946A4.583,4.583,0,1,0,208.34,255,4.595,4.595,0,0,0,212.9,250.378Z" transform="translate(-193.382 -237.773)" fill="#fff"/>
      </g>
    </g>
  </g>
</svg>
