<svg id="Componente_22_1" data-name="Componente 22 – 1" xmlns="http://www.w3.org/2000/svg" width="106" height="106" viewBox="0 0 106 106">
  <circle id="Elipse_23" data-name="Elipse 23" cx="53" cy="53" r="53" fill="#173e82"/>
  <g id="Grupo_65" data-name="Grupo 65" transform="translate(-264.189 -386.875)">
    <path id="Caminho_23" data-name="Caminho 23" d="M347.338,413.459v38.346a9.17,9.17,0,0,1-.392,1.156,4.123,4.123,0,0,1-4.067,2.364q-24.879-.008-49.753,0c-.628,0-1.257.014-1.885,0a4.054,4.054,0,0,1-4.192-4.217q-.016-18.436.014-36.872a4.627,4.627,0,0,1,.427-1.929,4,4,0,0,1,3.977-2.288q25.732.021,51.461.008a2.337,2.337,0,0,1,.759.035,10.825,10.825,0,0,1,2.089.854A4.046,4.046,0,0,1,347.338,413.459Zm-4.358.927H291.4v31.257H342.98Zm-25.487,39.434A3.477,3.477,0,1,0,314,450.366,3.5,3.5,0,0,0,317.493,453.821Z" transform="translate(0 0)" fill="#fff"/>
    <path id="Caminho_24" data-name="Caminho 24" d="M317.97,439.656c0-1.216.019-2.375-.014-3.528a1.679,1.679,0,0,0-.294-.909c-1.8-2.448-3.643-4.875-5.452-7.32a.9.9,0,0,0-.83-.4q-5.558.02-11.121,0a.894.894,0,0,0-.824.408c-1.6,2.165-3.175,4.347-4.848,6.45a3.77,3.77,0,0,0-.922,2.843c.076.811.014,1.632.014,2.459Z" transform="translate(11.365 30.082)" fill="#fff"/>
    <path id="Caminho_25" data-name="Caminho 25" d="M299.62,428.366a2.164,2.164,0,1,0-2.176-2.176A2.19,2.19,0,0,0,299.62,428.366Z" transform="translate(17.894 24.133)" fill="#fff"/>
    <path id="Caminho_26" data-name="Caminho 26" d="M317.97,439.656H293.68c0-.827.063-1.649-.014-2.459a3.77,3.77,0,0,1,.922-2.843c1.673-2.1,3.251-4.285,4.848-6.45a.894.894,0,0,1,.824-.408q5.562.02,11.121,0a.9.9,0,0,1,.83.4c1.809,2.446,3.648,4.872,5.452,7.32a1.679,1.679,0,0,1,.294.909C317.989,437.281,317.97,438.44,317.97,439.656Z" transform="translate(11.365 30.082)" fill="#fff"/>
    <path id="Caminho_27" data-name="Caminho 27" d="M299.62,428.366a2.164,2.164,0,1,1,2.141-2.212A2.193,2.193,0,0,1,299.62,428.366Z" transform="translate(17.894 24.133)" fill="#fff"/>
  </g>
</svg>
