<svg id="Componente_24_1" data-name="Componente 24 – 1" xmlns="http://www.w3.org/2000/svg" width="106" height="106" viewBox="0 0 106 106">
  <circle id="Elipse_27" data-name="Elipse 27" cx="53" cy="53" r="53" fill="#173e82"/>
  <g id="Grupo_69" data-name="Grupo 69" transform="translate(-102.398 -191.418)">
    <path id="Caminho_40" data-name="Caminho 40" d="M173.078,293.12H137.727a.489.489,0,0,0-.139-.078,5.669,5.669,0,0,1-4.662-5.782q.04-20.5.014-40.994a5.506,5.506,0,0,1,5.732-5.729q4.171-.008,8.341,0c-.051,1.027-.183,2.058-.136,3.081a4.223,4.223,0,0,0,4.411,4.218q4.005.034,8.011,0a4.223,4.223,0,0,0,4.411-4.218c.047-1.023-.086-2.053-.136-3.081,2.926,0,5.852,0,8.777,0a5.362,5.362,0,0,1,3.3,1.105,5.519,5.519,0,0,1,2.223,4.677q-.012,20.47,0,40.94c0,.164,0,.328-.007.49a5.635,5.635,0,0,1-2,4.081A7.1,7.1,0,0,1,173.078,293.12Zm-11.512-15.162c-2.582,0-5.164,0-7.745,0a1.657,1.657,0,0,0-1.668.995,1.633,1.633,0,0,0,1.65,2.276c3.491.008,6.981,0,10.472,0,1.727,0,3.454,0,5.182,0a1.662,1.662,0,0,0,1.638-1.039,1.633,1.633,0,0,0-1.62-2.225C166.839,277.95,164.2,277.959,161.567,277.958Zm.056-22.7v0c-2.618,0-5.236-.005-7.854,0a1.616,1.616,0,0,0-1.75,1.611,1.633,1.633,0,0,0,1.729,1.649q7.853.018,15.707-.008a2.166,2.166,0,0,0,1.069-.327,1.522,1.522,0,0,0,.606-1.772,1.557,1.557,0,0,0-1.544-1.148C166.931,255.247,164.277,255.254,161.623,255.254Zm-.02,14.635q3.927,0,7.854,0a1.638,1.638,0,1,0-.035-3.265c-2.6-.011-5.2,0-7.8,0-2.582,0-5.163,0-7.745,0a1.708,1.708,0,0,0-1.675.9,1.611,1.611,0,0,0,1.491,2.363C156.33,269.9,158.966,269.888,161.6,269.889Zm-18.68-12.671c-.457-.455-.887-.895-1.331-1.322a1.628,1.628,0,1,0-2.319,2.284q1.219,1.285,2.474,2.536a1.622,1.622,0,0,0,2.531-.075c.462-.513.907-1.041,1.36-1.562q1.679-1.934,3.357-3.87a1.575,1.575,0,0,0,.275-1.777,1.544,1.544,0,0,0-1.418-.946,1.753,1.753,0,0,0-1.452.725C145.251,254.548,144.091,255.873,142.922,257.218Zm1.069,12.671c1.073,0,2.145.007,3.217,0a1.633,1.633,0,1,0,.061-3.261q-3.272-.027-6.544,0a1.633,1.633,0,1,0,.048,3.261C141.846,269.9,142.919,269.889,143.991,269.889Zm.028,11.129c1.054,0,2.108.006,3.163,0a1.644,1.644,0,0,0,1.776-1.6,1.666,1.666,0,0,0-1.771-1.667q-3.19-.018-6.379,0a1.647,1.647,0,0,0-1.769,1.663,1.627,1.627,0,0,0,1.765,1.6C141.875,281.025,142.947,281.018,144.02,281.018Z" transform="translate(0 -20.766)" fill="#fff"/>
    <path id="Caminho_41" data-name="Caminho 41" d="M252.514,219.779h-3.864a1.366,1.366,0,0,1,.744,1.469c-.009.49.014.981-.011,1.47a.994.994,0,0,1-1.054,1.073q-4.112.028-8.225,0a.99.99,0,0,1-1.053-1.073,11.615,11.615,0,0,1,.013-1.849,4.474,4.474,0,0,1,.43-1.09h-3.575a4.123,4.123,0,0,1,3.938-3.252q4.359-.089,8.721,0A4.121,4.121,0,0,1,252.514,219.779Z" transform="translate(-88.922)" fill="#fff"/>
  </g>
</svg>
