<svg id="Componente_21_1" data-name="Componente 21 – 1" xmlns="http://www.w3.org/2000/svg" width="106" height="106" viewBox="0 0 106 106">
  <circle id="Elipse_22" data-name="Elipse 22" cx="53" cy="53" r="53" fill="#173e82"/>
  <g id="Grupo_67" data-name="Grupo 67" transform="translate(-1196 -25475)">
    <path id="Caminho_28" data-name="Caminho 28" d="M303.076,429.051c-2.271.373-3.1,1.624-2.911,3.87.164,1.9,1.755,1.792,2.857,2.534-.623,1.431-1.291,2.71.312,4.231,1.574,1.492,2.837.84,4.333.16.639,1.5,1.07,2.87,3.251,2.894,2.238.024,2.636-1.394,3.255-2.915,1.533.693,2.812,1.262,4.366-.23,1.591-1.529.881-2.8.209-4.28,1.615-.566,2.89-1.07,2.911-3.239.021-2.23-1.427-2.558-2.911-3.149.164-.393.3-.709.43-1.029.648-1.6.594-1.857-.623-3.042-.172-.168-.353-.324-.512-.5a1.894,1.894,0,0,0-2.468-.5c-.459.225-.951.381-1.406.562-.763-1.078-.726-2.64-2.607-2.792-2.23-.18-3.505.615-3.854,2.89-1.586-.668-2.874-1.316-4.432.18C301.695,426.214,302.322,427.477,303.076,429.051Z" transform="translate(960.935 25109.482)" fill="#fff"/>
    <path id="Caminho_29" data-name="Caminho 29" d="M289,435.527c.484-1.628,1.841-2.288,3.23-2.9.935-.41,1.89-.783,2.894-1.2-.316-.726-.639-1.406-.922-2.107-.291-.726-.57-1.459-.808-2.206a3.12,3.12,0,0,1,.881-3.4c1-.972,1.988-1.968,3-2.931a3.539,3.539,0,0,1,3.891-.734c1.332.471,2.656.971,4.046,1.484.32-.783.611-1.574.959-2.341a24,24,0,0,1,1.152-2.267,2.807,2.807,0,0,1,2.5-1.431q2.392-.025,4.784,0a2.841,2.841,0,0,1,2.6,1.5c.652,1.181,1.2,2.419,1.783,3.632.131.275.238.558.389.91.595-.246,1.164-.5,1.742-.721.935-.357,1.865-.738,2.825-1.025a3.076,3.076,0,0,1,3.108.705c1.2,1.111,2.357,2.275,3.5,3.444a2.6,2.6,0,0,1,.689,2.542c-.238.947-.566,1.874-.894,2.8-.238.677-.545,1.328-.853,2.066.553.217,1.1.414,1.632.644.976.426,1.964.832,2.911,1.324a2.929,2.929,0,0,1,1.619,2.788c0,1.464,0,2.927,0,4.387a2.913,2.913,0,0,1-1.562,2.759c-1.246.664-2.554,1.214-3.837,1.812-.213.1-.43.189-.713.312.369.828.75,1.607,1.062,2.415a20.5,20.5,0,0,1,.771,2.353,2.616,2.616,0,0,1-.664,2.55c-1.173,1.205-2.357,2.4-3.6,3.53a2.924,2.924,0,0,1-2.927.689c-1.312-.406-2.6-.9-3.886-1.357-.266-.094-.525-.205-.836-.328-.365.894-.693,1.767-1.078,2.616a17.949,17.949,0,0,1-1.054,2.029,2.655,2.655,0,0,1-2.3,1.394c-1.7.02-3.4.02-5.1.012a2.764,2.764,0,0,1-2.5-1.529c-.639-1.16-1.177-2.382-1.751-3.575-.131-.275-.238-.558-.385-.906-.426.172-.82.344-1.222.492-1.16.439-2.308.91-3.493,1.283a2.825,2.825,0,0,1-2.816-.635c-1.263-1.136-2.464-2.345-3.653-3.563a2.511,2.511,0,0,1-.672-2.542c.389-1.336.9-2.636,1.361-3.948.1-.283.23-.562.373-.906-.828-.32-1.64-.615-2.435-.947q-.935-.387-1.841-.844a3.621,3.621,0,0,1-1.89-2.214Z" transform="translate(926.405 25090.52)" fill="#fff"/>
    <path id="Caminho_31" data-name="Caminho 31" d="M299.915,419.407a6.819,6.819,0,1,1-6.92,6.822A6.9,6.9,0,0,1,299.915,419.407Zm.008,3.792a3.068,3.068,0,0,0-3.136,3,3.16,3.16,0,0,0,6.317-.045A3.074,3.074,0,0,0,299.923,423.2Z" transform="translate(938.789 25102.691)"/>
    <path id="Caminho_32" data-name="Caminho 32" d="M305.18,423.411a3.125,3.125,0,1,1-3.194,3.083A3.2,3.2,0,0,1,305.18,423.411Zm-.012,4.5a1.408,1.408,0,0,0,1.435-1.386,1.426,1.426,0,0,0-1.464-1.361,1.374,1.374,0,1,0,.029,2.747Z" transform="translate(966.657 25115.104)"/>
    <path id="Caminho_33" data-name="Caminho 33" d="M301.383,418.983a8.562,8.562,0,1,1,.131,17.108,8.794,8.794,0,0,1-9-8.6A8.688,8.688,0,0,1,301.383,418.983Z" transform="translate(937.288 25101.377)" fill="#173e82"/>
    <path id="Caminho_34" data-name="Caminho 34" d="M306.038,431.488a4.167,4.167,0,1,1-.09-8.33,4.326,4.326,0,0,1,4.444,4.128A4.269,4.269,0,0,1,306.038,431.488Z" transform="translate(965.782 25114.314)" fill="#173e82"/>
    <g id="Grupo_66" data-name="Grupo 66" transform="translate(-1.48 3)">
      <path id="Caminho_30" data-name="Caminho 30" d="M302.245,426.941c-.541-1.128-.99-2.034.144-3.124,1.117-1.073,2.039-.608,3.177-.129.25-1.631,1.164-2.2,2.763-2.072,1.349.109,1.322,1.228,1.869,2,.326-.129.679-.241,1.008-.4a1.358,1.358,0,0,1,1.769.358c.115.129.244.241.367.361.873.849.911,1.034.447,2.181-.094.229-.191.456-.309.738,1.064.423,2.1.658,2.087,2.257-.015,1.555-.929,1.916-2.087,2.322.482,1.064.99,1.972-.15,3.068-1.114,1.07-2.031.661-3.13.165-.444,1.09-.729,2.107-2.333,2.089-1.563-.018-1.872-1-2.33-2.075-1.073.488-1.978.955-3.106-.115-1.149-1.09-.67-2.007-.223-3.033-.791-.532-1.931-.456-2.048-1.816C300.023,428.1,300.617,427.208,302.245,426.941Z" transform="translate(960.929 25079.359)" fill="#fff"/>
      <path id="Caminho_35" data-name="Caminho 35" d="M304.81,429.129a2.987,2.987,0,1,1-.065-5.971,3.1,3.1,0,0,1,3.186,2.959A3.06,3.06,0,0,1,304.81,429.129Z" transform="translate(963.968 25082.393)" fill="#173e82"/>
    </g>
  </g>
</svg>
