<svg xmlns="http://www.w3.org/2000/svg" xmlns:xlink="http://www.w3.org/1999/xlink" width="106" height="106" viewBox="0 0 106 106">
  <defs>
    <clipPath id="clip-path">
      <rect id="Retângulo_508" data-name="Retângulo 508" width="62.865" height="70.897" fill="#fff" stroke="#fff" stroke-width="0.5"/>
    </clipPath>
  </defs>
  <g id="Grupo_77" data-name="Grupo 77" transform="translate(-679 -24498)">
    <circle id="Elipse_19" data-name="Elipse 19" cx="53" cy="53" r="53" transform="translate(679 24498)" fill="#173e82"/>
    <g id="Grupo_76" data-name="Grupo 76" transform="translate(699.012 24512.945)">
      <g id="Grupo_75" data-name="Grupo 75" clip-path="url(#clip-path)">
        <path id="Caminho_68" data-name="Caminho 68" d="M2.493,70.9c-.271-.12-.549-.226-.811-.362A3.073,3.073,0,0,1,.038,67.3c.306-1.958.661-3.908,1-5.862.008-.045.022-.09.033-.134.179-.691.646-1.039,1.234-.921a1.015,1.015,0,0,1,.785,1.265c-.246,1.594-.527,3.183-.8,4.774-.065.386-.156.77-.2,1.159a1.035,1.035,0,0,0,1,1.23,5.957,5.957,0,0,0,.623.009H59.172c1.418,0,1.737-.373,1.5-1.745Q59.2,58.384,57.727,49.692a3.512,3.512,0,0,0-2.69-3.065c-2.259-.646-4.5-1.355-6.748-2.035-.194-.059-.395-.1-.673-.168,0,1.78-.01,3.5.021,5.226,0,.132.28.318.463.379a5.363,5.363,0,1,1-6.88,4.807,5.293,5.293,0,0,1,3.829-4.831c.2-.07.461-.337.464-.517.034-1.89.021-3.782.021-5.723l-3.578-1.082c-.3.684-.6,1.324-.858,1.983Q36.881,55.484,32.675,66.3c-.24.616-.376,1.371-1.24,1.374s-1-.75-1.246-1.366Q25.7,54.86,21.217,43.408c-.084-.213-.187-.418-.32-.713l-3.57,1.068a6.411,6.411,0,0,1,0,.665c-.137,1.228-.012,2.085,1.49,2.586a4.316,4.316,0,0,1,2.764,4c.3,3.261.54,6.529.763,9.8a2.58,2.58,0,0,1-2.48,2.85,8.181,8.181,0,0,1-1.383.007,1.029,1.029,0,1,1,.04-2.056c1.792-.105,1.813-.107,1.681-1.9q-.313-4.244-.679-8.484a3.047,3.047,0,0,0-3.088-2.783,2.961,2.961,0,0,0-3.254,2.471c-.27,2.079-.389,4.177-.567,6.267-.094,1.1-.179,2.207-.263,3.311-.072.958.064,1.1,1.005,1.111.3,0,.6-.011.9.016a.958.958,0,0,1,.938.939.9.9,0,0,1-.736,1.029c-2.343.444-4.427-.427-4.186-3.212.272-3.148.473-6.3.79-9.446a4.878,4.878,0,0,1,3.7-4.354c.389-.124.52-.273.5-.661-.029-.477-.007-.957-.007-1.527l-5.1,1.546c-.794.24-1.584.494-2.383.714A3.4,3.4,0,0,0,5.15,49.62c-.371,2.228-.754,4.454-1.134,6.68a3.848,3.848,0,0,1-.1.471.963.963,0,0,1-1.145.766.922.922,0,0,1-.84-1.083c.106-.891.269-1.776.419-2.662.269-1.591.538-3.181.821-4.77a5.161,5.161,0,0,1,3.813-4.3c2.575-.794,5.161-1.553,7.734-2.357.251-.078.591-.342.628-.563a9.418,9.418,0,0,1,6.2-7.673,2.713,2.713,0,0,0,.256-.146l-.42-.519a16.69,16.69,0,0,1-3.5-7.053c-.1-.462-.3-.565-.735-.594A3.09,3.09,0,0,1,14,22.439a6.514,6.514,0,0,1,.114-1.784A3.542,3.542,0,0,1,15,19a1.785,1.785,0,0,0,.62-1.552c-.019-3.138-.046-6.277.008-9.415A8.039,8.039,0,0,1,21.965.225,9.2,9.2,0,0,1,24.021.013Q31.429-.013,38.836.006a8.145,8.145,0,0,1,8.41,8.371c0,.484.013.97-.014,1.453a.938.938,0,0,1-.953.981.921.921,0,0,1-1.051-.872,12.14,12.14,0,0,1-.051-1.449,6.122,6.122,0,0,0-6.461-6.408q-7.269-.01-14.538,0A6.114,6.114,0,0,0,17.69,8.529c-.014,3.254,0,6.507,0,9.761,0,.2.018.409.027.617l1.78.591c.012-.255.033-.493.033-.732,0-2.377,0-4.754,0-7.13A4.243,4.243,0,0,1,24.142,7.03c.531,0,1.063.027,1.592-.006a5.478,5.478,0,0,1,3.979,1.252,2.657,2.657,0,0,0,3.456-.013,5.41,5.41,0,0,1,3.914-1.24c.621.038,1.246,0,1.869.009a4.2,4.2,0,0,1,4.376,4.421c.017,2.423,0,4.846,0,7.269V19.5l1.843-.6c0-1.181,0-2.4,0-3.615,0-1.129.325-1.617,1.063-1.606.712.01,1.007.468,1.008,1.569,0,.9-.029,1.8.018,2.7a1.251,1.251,0,0,0,.38.795A2.975,2.975,0,0,1,48.792,20.8a12.739,12.739,0,0,1,.012,2.344,2.968,2.968,0,0,1-3.031,2.666c-.513.03-.694.184-.805.685a16.767,16.767,0,0,1-3.448,6.93c-.142.176-.282.354-.418.525a25.921,25.921,0,0,1,2.375,1.3,9.085,9.085,0,0,1,3.982,6.372.821.821,0,0,0,.7.775c2.54.75,5.072,1.53,7.609,2.292a5.236,5.236,0,0,1,3.947,4.421q1.553,9.064,3.1,18.128a3.1,3.1,0,0,1-2.079,3.495c-.126.047-.245.112-.367.169ZM19.63,22.26a31.684,31.684,0,0,0,.425,4.273,13.621,13.621,0,0,0,3.656,6.415,10.232,10.232,0,0,0,9.369,3.341,10.9,10.9,0,0,0,6.8-4.164c2.329-2.859,3.674-6.047,3.162-9.827-1.5-.229-1.789-.566-1.79-2.119,0-2.931.006-5.862,0-8.792,0-1.141-.63-2.143-1.615-2.191-1.892-.092-3.793-.456-5.559.909a4.284,4.284,0,0,1-5.306.01A5.007,5.007,0,0,0,25.295,9.1c-.366.034-.738,0-1.107.005-1.8.005-2.578.774-2.579,2.559q0,4.362,0,8.723c0,1.326-.449,1.8-1.977,1.872M37.19,37.085a12.468,12.468,0,0,1-11.514.011c.037,1.667.053,3.243-1.026,4.531a1.615,1.615,0,0,0,.177.2c2.085,1.564,4.177,3.118,6.253,4.7.324.246.521.132.782-.065,1.6-1.208,3.213-2.405,4.819-3.608.511-.383,1.018-.772,1.567-1.188-1.111-1.336-1.1-2.891-1.057-4.578m9.334,14.8a3.278,3.278,0,1,0,3.319,3.265,3.287,3.287,0,0,0-3.319-3.265m-15.176,11.6.163.011c.4-1.047.744-2.117,1.206-3.134a4.025,4.025,0,0,0,.268-2.865c-.219-.8-.311-1.628-.45-2.446-.267-1.562-.264-1.563-1.946-1.356-.312,1.7-.631,3.415-.94,5.134a.676.676,0,0,0,.061.333q.815,2.162,1.639,4.322M45.31,41.517a7.03,7.03,0,0,0-6.014-5.69c0,1.056-.023,2.111.014,3.164a3.262,3.262,0,0,0,.286.982.686.686,0,0,0,.856.464,4.38,4.38,0,0,1,1.556.115c1.087.273,2.155.624,3.3.965M17.6,41.5c1.091-.323,2.157-.662,3.236-.948a2.9,2.9,0,0,1,1.344-.137c.724.176,1.127-.129,1.2-.733.164-1.284.208-2.583.3-3.909-3.12.421-5.907,3.087-6.088,5.727m11.761,6.32-5.609-4.189-.111.08,2.25,5.575,3.47-1.467m7.615,1.454,2.234-5.556-.13-.071-5.576,4.17c1.083.462,2.056.878,3.029,1.292.124.053.252.094.444.165m-3.219.917c-.694-.3-1.361-.6-2.039-.869a.781.781,0,0,0-.524-.018c-.7.274-1.383.582-2.07.876a2.572,2.572,0,0,0,4.633.01M17.645,21.064l-1.569-.23c0,.636-.02,1.2,0,1.764.04.93.609,1.3,1.564,1.036Zm27.574,2.624c1.506.268,1.842-.7,1.411-2.835l-1.411.216ZM28.19,55.2c.143-.789.26-1.365.345-1.947a.74.74,0,0,0-.082-.509c-.4-.507-.821-.99-1.253-1.467-.073-.08-.229-.085-.347-.125-.035.118-.13.259-.1.35.442,1.173.9,2.339,1.432,3.7m6.482,0c.525-1.344.978-2.489,1.41-3.642.042-.111-.051-.272-.081-.41a1.192,1.192,0,0,0-.391.185c-.388.423-.768.856-1.119,1.309a.827.827,0,0,0-.169.549c.076.6.2,1.2.35,2.009" transform="translate(0 0)" fill="#fff" stroke="#fff" stroke-width="0.5"/>
      </g>
    </g>
  </g>
</svg>
