<svg id="Componente_25_1" data-name="Componente 25 – 1" xmlns="http://www.w3.org/2000/svg" width="106" height="106" viewBox="0 0 106 106">
  <circle id="Elipse_26" data-name="Elipse 26" cx="53" cy="53" r="53" fill="#173e82"/>
  <g id="Grupo_64" data-name="Grupo 64" transform="translate(-270.03 -393.613)">
    <path id="Caminho_16" data-name="Caminho 16" d="M287,438.721a7.831,7.831,0,0,0,.759-.324q24.308-13.3,48.61-26.616c.188-.1.38-.2.636-.334l14.135,25.814h-9.852a3.173,3.173,0,0,1,1.749-1.915.938.938,0,0,0,.445-.458,10.113,10.113,0,0,0,.467-1.558,1.157,1.157,0,0,0-.1-.73q-2.385-4.41-4.819-8.8a1.417,1.417,0,0,0-.623-.483c-.273-.13-.587-.159-.87-.273a1.644,1.644,0,0,0-1.613.14,3.263,3.263,0,0,1-4.569-1.632,1.022,1.022,0,0,0-.471-.441,3.489,3.489,0,0,0-3.511.273c-9.239,5.137-18.542,10.16-27.774,15.307a4.855,4.855,0,0,1-2.512.607,3.941,3.941,0,0,0-4.209,4.2c-.01,2.583,0,5.169-.11,7.808-.11-.188-.224-.376-.328-.568q-2.521-4.595-5.046-9.19a6.1,6.1,0,0,0-.4-.565Z" transform="translate(0 0)" fill="#fff"/>
    <path id="Caminho_17" data-name="Caminho 17" d="M290.022,420.622h56.931v33.622H290.022Zm28.5,4.131c-5.173,0-10.345.039-15.518-.029a3.121,3.121,0,0,0-2.81,1.191,1.418,1.418,0,0,0-.412,1.071,3.229,3.229,0,0,1-3.372,3.407,1.192,1.192,0,0,0-1.123.441,5.038,5.038,0,0,1-.643.646,1.366,1.366,0,0,0-.509,1.188c.023,2.823.075,5.653-.02,8.473a3.183,3.183,0,0,0,1.243,2.985,1.256,1.256,0,0,0,.961.357,3.161,3.161,0,0,1,3.43,2.989,2.6,2.6,0,0,0,.928,1.983,2.079,2.079,0,0,0,1.648.688q15.776-.029,31.555.013a3.248,3.248,0,0,0,2.934-1.22,1.327,1.327,0,0,0,.386-1.016,3.217,3.217,0,0,1,3.339-3.433,1.337,1.337,0,0,0,1.217-.513,4.36,4.36,0,0,1,.6-.6,1.336,1.336,0,0,0,.49-1.194c-.019-2.849-.081-5.7.023-8.541a3.141,3.141,0,0,0-1.223-2.862,1.323,1.323,0,0,0-1.016-.393,3.277,3.277,0,0,1-3.453-3.534,1.384,1.384,0,0,0-.279-.782c-.182-.266-.474-.451-.675-.7a1.681,1.681,0,0,0-1.467-.63C329.345,424.766,323.932,424.753,318.52,424.753Z" transform="translate(6.784 20.598)" fill="#fff"/>
    <path id="Caminho_18" data-name="Caminho 18" d="M294.423,423.9a11.011,11.011,0,0,1,14.593-5.461,7.5,7.5,0,0,1,4.056,5.461Z" transform="translate(16.665 13.353)" fill="#fff"/>
    <path id="Caminho_19" data-name="Caminho 19" d="M304.067,416.686a3.36,3.36,0,1,1-3.352,3.365A3.4,3.4,0,0,1,304.067,416.686Z" transform="translate(30.791 11.762)" fill="#fff"/>
    <path id="Caminho_20" data-name="Caminho 20" d="M305.911,423.076a10.612,10.612,0,0,1,7.7,3.177,8.031,8.031,0,0,1-.62,11.948,11.23,11.23,0,0,1-14.723-.37,8.046,8.046,0,0,1,.591-12.341A11.352,11.352,0,0,1,305.911,423.076Z" transform="translate(19.452 26.107)" fill="#fff"/>
    <path id="Caminho_21" data-name="Caminho 21" d="M309.641,428.136a3.344,3.344,0,1,1-3.336-3.368A3.37,3.37,0,0,1,309.641,428.136Z" transform="translate(35.815 29.906)" fill="#fff"/>
    <path id="Caminho_22" data-name="Caminho 22" d="M299.263,428.112a3.344,3.344,0,1,1-3.381-3.342A3.379,3.379,0,0,1,299.263,428.112Z" transform="translate(12.516 29.908)" fill="#fff"/>
  </g>
</svg>
