<svg id="Componente_23_1" data-name="Componente 23 – 1" xmlns="http://www.w3.org/2000/svg" width="106" height="106" viewBox="0 0 106 106">
  <circle id="Elipse_28" data-name="Elipse 28" cx="53" cy="53" r="53" fill="#173e82"/>
  <g id="Grupo_70" data-name="Grupo 70" transform="translate(-40.145 -162.145)">
    <path id="Caminho_42" data-name="Caminho 42" d="M91.368,181.89h1.1a.418.418,0,0,0,.123.058,5.87,5.87,0,0,1,5.2,6.371.56.56,0,0,0,.293.434c1.122.438,2.257.842,3.36,1.247.08-.066.124-.088.147-.124.072-.116.136-.237.2-.357a14.062,14.062,0,0,1,9.4-7.267c.617-.147,1.247-.242,1.871-.362H115.4c.6.112,1.217.188,1.81.342,6,1.565,9.777,5.35,10.853,11.477a13.917,13.917,0,0,1-14.682,16.207c-.926-.072-1.846-.231-2.827-.357L104.847,225.4a14.622,14.622,0,0,1,5.257,4.149c2.241-1.455,4.432-2.866,6.6-4.31a.764.764,0,0,0,.166-.68,5.838,5.838,0,1,1,1.847,2.787.658.658,0,0,0-.943-.034c-1.018.7-2.065,1.354-3.1,2.027l-3.26,2.121a14.137,14.137,0,0,1-6.69,19.5,13.728,13.728,0,0,1-10.039.525,14.064,14.064,0,0,1-9.038-8.973l-4.169.993c-1.17.279-1.169.28-1.337,1.41a5.816,5.816,0,1,1-7.865-6.335,5.749,5.749,0,0,1,7.128,2.478.641.641,0,0,0,.872.359c.9-.256,1.822-.433,2.733-.651.7-.168,1.4-.349,2.118-.528a14.147,14.147,0,0,1,3.619-11.674l-4.611-5.066a14.122,14.122,0,0,1-14.348,1.675c-.617,1.108-1.177,2.182-1.8,3.214a.807.807,0,0,0,.132,1.172,5.735,5.735,0,0,1-.256,8.129,5.831,5.831,0,0,1-8.443-.474A6.961,6.961,0,0,1,58,233.933v-1.1c.027-.036.073-.07.078-.108a5.83,5.83,0,0,1,7.206-4.92.5.5,0,0,0,.445-.132c.693-1.2,1.36-2.414,2.031-3.618-8.206-5.442-8.528-18.485.7-23.864a1.684,1.684,0,0,0-.076-.252c-.969-2.042-1.948-4.079-2.9-6.127-.157-.337-.328-.385-.686-.332a5.7,5.7,0,0,1-5.4-2,7.032,7.032,0,0,1-1.4-3.14v-1.1a2.623,2.623,0,0,0,.116-.382A5.736,5.736,0,0,1,60.3,183.14a6.983,6.983,0,0,1,3.05-1.25h1.1A1.079,1.079,0,0,0,64.7,182a5.583,5.583,0,0,1,4.727,4.124,5.49,5.49,0,0,1-1.671,5.922.617.617,0,0,0-.157.871c.713,1.457,1.4,2.928,2.1,4.392.3.633.613,1.261.9,1.842,7.528-2.133,13.294.127,17.485,6.646l12.841-5.44a13.81,13.81,0,0,1-.17-8.143c-1.1-.408-2.144-.754-3.151-1.18-.494-.209-.723-.107-1.056.305a5.8,5.8,0,0,1-10.215-2.292,5.6,5.6,0,0,1,1.963-5.787A7.169,7.169,0,0,1,91.368,181.89Zm10.449,20.589c-4.151,1.761-8.206,3.493-12.273,5.193-.505.211-.615.41-.461.951a13.626,13.626,0,0,1-.241,8.3,14.4,14.4,0,0,1-3.008,5l4.628,5.088a14,14,0,0,1,12.217-2.421l5.727-15.877A14.42,14.42,0,0,1,101.817,202.479Zm3.618,1.053a8.55,8.55,0,0,1,4.6-4.645,5.918,5.918,0,0,1,.148-8.29,5.856,5.856,0,0,1,7.431-.576,5.769,5.769,0,0,1,2.309,3.457,5.927,5.927,0,0,1-1.5,5.406,8.646,8.646,0,0,1,4.668,4.683,11.69,11.69,0,1,0-17.733-15.235A11.475,11.475,0,0,0,105.435,203.532Zm2.389,42.252A11.691,11.691,0,1,0,90.087,230.55c-4.293,5.025-3.148,11.887,0,15.026a22.151,22.151,0,0,1,1.984-2.646,21.914,21.914,0,0,1,2.635-1.986,5.838,5.838,0,1,1,8.486.116A8.607,8.607,0,0,1,107.824,245.784ZM66.635,219.816a22.061,22.061,0,0,1,1.975-2.645,22.111,22.111,0,0,1,2.638-2,5.851,5.851,0,0,1,7.593-8.8,5.681,5.681,0,0,1,2.362,3.421,5.93,5.93,0,0,1-1.467,5.5,8.659,8.659,0,0,1,4.66,4.7,11.688,11.688,0,0,0-17.428-15.577C62.513,209.225,63.24,216.289,66.635,219.816Zm15.78,1.961a5.629,5.629,0,0,0-3.352-4.174,10.02,10.02,0,0,0-6.263-.262,5.527,5.527,0,0,0-3.921,3.7.823.823,0,0,0,.4,1.164A11.6,11.6,0,0,0,82.415,221.777Zm16.595,21.1c-.529,0-1.1-.03-1.671.005a5.874,5.874,0,0,0-5.025,3.971.819.819,0,0,0,.4,1.116,11.518,11.518,0,0,0,12.729-.147.835.835,0,0,0,.275-.71,5.565,5.565,0,0,0-2.063-3.064A6.4,6.4,0,0,0,99.01,242.881Zm15.4-42.133c-.653,0-1.179-.015-1.7,0a5.782,5.782,0,0,0-5.128,4.094.649.649,0,0,0,.314.843,11.736,11.736,0,0,0,12.69.011.685.685,0,0,0,.31-.912,5.821,5.821,0,0,0-2.009-2.871A6.16,6.16,0,0,0,114.411,200.748ZM74.423,240.5a3.487,3.487,0,0,0-3.515,3.455,3.5,3.5,0,1,0,7,.037A3.5,3.5,0,0,0,74.423,240.5Zm-7.072-52.746a3.5,3.5,0,1,0-3.484,3.484A3.482,3.482,0,0,0,67.351,187.757Zm55.09,38.637a3.5,3.5,0,1,0-3.486-3.482A3.482,3.482,0,0,0,122.441,226.394ZM91.956,191.241a3.5,3.5,0,1,0-3.472-3.5A3.5,3.5,0,0,0,91.956,191.241ZM63.88,229.951a3.5,3.5,0,1,0,3.472,3.5A3.526,3.526,0,0,0,63.88,229.951Zm15.144-18.733a3.456,3.456,0,0,0-3.456-3.51,3.486,3.486,0,1,0,3.456,3.51ZM98.963,233.5a3.466,3.466,0,1,0,3.508,3.454A3.463,3.463,0,0,0,98.963,233.5Zm15.33-42.116a3.415,3.415,0,0,0-3.5,3.383,3.443,3.443,0,0,0,6.885.026A3.4,3.4,0,0,0,114.293,191.384Z" transform="translate(0)" fill="#fff"/>
    <path id="Caminho_43" data-name="Caminho 43" d="M145.463,425.3a12.082,12.082,0,0,1-13.684.448.857.857,0,0,1-.418-1.212,5.758,5.758,0,0,1,4.085-3.857,10.438,10.438,0,0,1,6.525.273A5.865,5.865,0,0,1,145.463,425.3Z" transform="translate(-62.763 -203.468)" fill="#fff"/>
    <path id="Caminho_44" data-name="Caminho 44" d="M297.713,596.216a6.644,6.644,0,0,1,4.817,1.217,5.776,5.776,0,0,1,2.141,3.18.867.867,0,0,1-.285.736,11.953,11.953,0,0,1-13.21.152.85.85,0,0,1-.411-1.159,6.1,6.1,0,0,1,5.215-4.121C296.57,596.185,297.165,596.216,297.713,596.216Z" transform="translate(-198.702 -353.466)" fill="#fff"/>
    <path id="Caminho_45" data-name="Caminho 45" d="M402.339,309.867a6.9,6.9,0,0,1,5.01,1.308,6.52,6.52,0,0,1,2.25,3.216.767.767,0,0,1-.348,1.021,13.145,13.145,0,0,1-14.214-.012.727.727,0,0,1-.351-.944,6.476,6.476,0,0,1,5.744-4.586C401.018,309.85,401.607,309.867,402.339,309.867Z" transform="translate(-287.908 -109.526)" fill="#fff"/>
    <path id="Caminho_46" data-name="Caminho 46" d="M161.027,361.123a3.754,3.754,0,0,1-3.713,3.723,3.749,3.749,0,1,1,0-7.5A3.717,3.717,0,0,1,161.027,361.123Z" transform="translate(-81.741 -149.904)" fill="#fff"/>
    <path id="Caminho_47" data-name="Caminho 47" d="M317.105,532.65a4.214,4.214,0,1,1-4.2,4.262A4.21,4.21,0,0,1,317.105,532.65Z" transform="translate(-218.148 -299.898)" fill="#fff"/>
    <path id="Caminho_48" data-name="Caminho 48" d="M420.748,246.416a3.813,3.813,0,0,1,3.807,3.829,3.867,3.867,0,1,1-3.807-3.829Z" transform="translate(-306.449 -55.451)" fill="#fff"/>
  </g>
</svg>
