<svg id="Componente_26_1" data-name="Componente 26 – 1" xmlns="http://www.w3.org/2000/svg" width="106" height="106" viewBox="0 0 106 106">
  <circle id="Elipse_25" data-name="Elipse 25" cx="53" cy="53" r="53" fill="#173e82"/>
  <g id="Grupo_63" data-name="Grupo 63" transform="translate(-266.051 -391.523)">
    <path id="Caminho_10" data-name="Caminho 10" d="M338.243,435.825c-.327-.017-.656-.053-.983-.053q-20.265,0-40.528,0h-.972a13.932,13.932,0,0,1,.02-2.15c.172-1.068.5-2.11.71-3.173.09-.454.3-.555.716-.549,2.22.014,4.44.006,6.661.006q16.331,0,32.661-.017c.656,0,.893.2,1.014.82.177.913.462,1.806.7,2.711Z" transform="translate(19.401 36.926)" fill="#fff"/>
    <path id="Caminho_11" data-name="Caminho 11" d="M285.052,431.4q0-9.07,0-18.145c0-2.426,1.237-3.683,3.652-3.685q8.719-.008,17.438,0c2.446,0,3.691,1.265,3.691,3.73q0,18.144,0,36.29c0,2.46-1.257,3.722-3.7,3.722q-8.719,0-17.438,0c-2.37,0-3.643-1.268-3.643-3.623Q285.048,440.547,285.052,431.4Zm2.443-16.429v28.184h19.9V414.975Zm11.975,33.134a2.032,2.032,0,1,0-2.009,2.062A2.056,2.056,0,0,0,299.469,448.11Zm2.184-36.149h-8.439v.8h8.439Zm3.711.682c-.065-.716-.313-1.028-.817-1.034a.707.707,0,0,0-.789.718c-.034.51.262.873.733.831C304.823,413.127,305.127,412.791,305.364,412.642Z" transform="translate(0)" fill="#fff"/>
    <path id="Caminho_12" data-name="Caminho 12" d="M336.591,419.9v26.761H296.122V419.9Zm-38.6,24.7h36.671V421.97H297.99Z" transform="translate(20.123 18.769)" fill="#fff"/>
    <path id="Caminho_13" data-name="Caminho 13" d="M318.962,428.26h-3.925V416.187H295.32v-3.976h23.642Z" transform="translate(18.665 4.801)" fill="#fff"/>
    <path id="Caminho_14" data-name="Caminho 14" d="M292.4,438.172h12.124v3.953h-16.04V426.073H292.4Z" transform="translate(6.231 29.996)" fill="#fff"/>
  </g>
</svg>
