<svg id="Componente_27_1" data-name="Componente 27 – 1" xmlns="http://www.w3.org/2000/svg" width="106" height="106" viewBox="0 0 106 106">
  <circle id="Elipse_24" data-name="Elipse 24" cx="53" cy="53" r="53" fill="#173e82"/>
  <path id="Caminho_67" data-name="Caminho 67" d="M213.046,368.05c0-.864-.029-1.73.006-2.593.065-1.611.012-2.957-1.583-4.155-1.068-.8-1.386-2.587-2.081-3.91-.227-.432-.509-1.048-.888-1.157-6.274-1.805-9.816-6.367-12.209-12.057a40.618,40.618,0,0,1-3.013-15.3c-.059-4.017,1.891-6.765,5.535-8.316a18.382,18.382,0,0,1,3.387-1.053c1.662-.351,3.3-.508,4.808-1.567,1.613-1.129,3.958-.392,5.191,1.219a4.2,4.2,0,0,1-5.33,6.214c-1.884-.961-5.76-.363-7.159,1.2a2.836,2.836,0,0,0-.737,1.719c.05,6.587,1.208,12.9,5.211,18.346a15.808,15.808,0,0,0,3.189,2.944c1.133.873,2.349,1.438,3.756.258a3.5,3.5,0,0,1,2-.493c1.834-.066,3.673-.069,5.508-.007a3.426,3.426,0,0,1,2,.494c1.405,1.219,2.566.546,3.762-.228a15.928,15.928,0,0,0,6.58-9.7,97.474,97.474,0,0,0,1.843-10.8,2.924,2.924,0,0,0-2.23-3.469c-2.019-.642-3.943-1.467-6.147-.119-1.672,1.022-3.836.148-4.975-1.491a4.127,4.127,0,0,1,.291-5.088c1.317-1.49,3.576-2.092,5.117-.951,1.406,1.041,2.947,1.129,4.491,1.5a23.225,23.225,0,0,1,3.987,1.278c3.062,1.353,5.042,3.727,5.066,7.1.06,8.371-1.553,16.315-6.988,23.04a16.134,16.134,0,0,1-7.82,5.245,2.176,2.176,0,0,0-1.2,1.21c-.674,1.96-1.305,3.888-3.289,5-.259.145-.375.732-.378,1.116-.029,3.024-.087,6.051,0,9.073a7.03,7.03,0,0,0,14.041.24c.155-2.692.015-5.4.071-8.1a11.291,11.291,0,0,1,22.447-1.846,17.992,17.992,0,0,1,.121,3.876,2.277,2.277,0,0,0,1.4,2.509,8.257,8.257,0,0,1,4.079,9.236,8.487,8.487,0,0,1-16.289.642,8.279,8.279,0,0,1,4.226-10.116,1.564,1.564,0,0,0,1.04-1.726c-.076-.966.027-1.946-.039-2.914a5.661,5.661,0,0,0-11.317.277c-.077,3.126.05,6.273-.276,9.373a12.612,12.612,0,0,1-25.013-.129,57.719,57.719,0,0,1-.03-5.822Zm42.377,8.525a2.786,2.786,0,0,0-2.779-2.911,2.821,2.821,0,0,0-2.814,2.727,2.869,2.869,0,0,0,2.805,2.923A2.807,2.807,0,0,0,255.423,376.576Z" transform="translate(-173.17 -299.082)" fill="#fff"/>
</svg>
