<svg id="Componente_18_1" data-name="Componente 18 – 1" xmlns="http://www.w3.org/2000/svg" width="106" height="106" viewBox="0 0 106 106">
  <circle id="Elipse_19" data-name="Elipse 19" cx="53" cy="53" r="53" fill="#173e82"/>
  <g id="Grupo_75" data-name="Grupo 75" transform="translate(80.121 -0.559)">
    <path id="Caminho_58" data-name="Caminho 58" d="M-48.606,44.555A21.288,21.288,0,0,1-42,29.944a20.851,20.851,0,0,1,14.779-5.995,20.837,20.837,0,0,1,13.9,5.028A21.242,21.242,0,0,1-5.639,44.528h3.921c-.6-8.907-4.449-16.021-12.118-20.66-8.9-5.385-18.079-5.285-26.91.193-7.5,4.655-11.168,11.744-11.781,20.494Zm11.468,24.274V42.485c-.9,0-1.752,0-2.607,0a3.4,3.4,0,0,0-3.7,3.7q0,6.2,0,12.4c0,2.3-.013,4.594.005,6.89a3.261,3.261,0,0,0,2.8,3.329C-39.5,68.916-38.348,68.829-37.137,68.829Zm20.044.05c1.032,0,2.033.044,3.029-.009a3.289,3.289,0,0,0,3.248-3.434c.014-1.3,0-2.591,0-3.886q0-7.772,0-15.544a3.143,3.143,0,0,0-2.324-3.32,28.343,28.343,0,0,0-3.953-.267ZM-6.858,48.525v14.4h3.3a4.3,4.3,0,0,0,4.623-3.978A49.937,49.937,0,0,0,1.193,53.7a7.976,7.976,0,0,0-.12-1.432C.75,50.416-.609,48.739-2.212,48.562A42.592,42.592,0,0,0-6.858,48.525ZM-47.39,62.908V48.433c-1.15,0-2.254,0-3.358,0a4.365,4.365,0,0,0-4.6,4.163,50.17,50.17,0,0,0,0,6.192,4.344,4.344,0,0,0,3.676,4.1C-50.263,62.995-48.84,62.908-47.39,62.908Zm32.554,19.277A16.291,16.291,0,0,0-4.157,75.607,16.082,16.082,0,0,0-1.019,66.7l-3.839.181c-.894,6.036-4.253,9.839-9.979,11.433Z" transform="translate(0 0)" fill="#fff"/>
    <path id="Caminho_59" data-name="Caminho 59" d="M216.11,732.487l-.642-.228a3.879,3.879,0,0,1-2.581-3.888,3.78,3.78,0,0,1,3.309-3.544,30.3,30.3,0,0,1,3.19-.08c1.608-.01,3.217-.023,4.825,0a3.864,3.864,0,0,1,3.756,2.691,3.772,3.772,0,0,1-1.3,4.2,10.742,10.742,0,0,1-1.646.843Z" transform="translate(-246.769 -648.242)" fill="#fff"/>
    <path id="Caminho_60" data-name="Caminho 60" d="M-15.218,44.555h-3.921c.613-8.75,4.277-15.839,11.781-20.494,8.83-5.478,18.008-5.578,26.91-.193,7.669,4.639,11.517,11.753,12.118,20.66H27.749a21.242,21.242,0,0,0-7.685-15.551,20.837,20.837,0,0,0-13.9-5.028A20.851,20.851,0,0,0-8.617,29.944,21.287,21.287,0,0,0-15.218,44.555Z" transform="translate(-33.388 0)" fill="#fff"/>
    <path id="Caminho_61" data-name="Caminho 61" d="M100.21,327.593c-1.211,0-2.364.088-3.5-.021a3.261,3.261,0,0,1-2.8-3.329c-.018-2.3-.005-4.594-.005-6.89q0-6.2,0-12.4a3.4,3.4,0,0,1,3.7-3.7c.854,0,1.709,0,2.607,0Z" transform="translate(-137.348 -258.765)" fill="#fff"/>
    <path id="Caminho_62" data-name="Caminho 62" d="M422.1,326.885V300.424a28.345,28.345,0,0,1,3.953.267,3.143,3.143,0,0,1,2.324,3.32q.009,7.772,0,15.544c0,1.3.011,2.591,0,3.886a3.289,3.289,0,0,1-3.248,3.434C424.132,326.929,423.131,326.885,422.1,326.885Z" transform="translate(-439.193 -258.006)" fill="#fff"/>
    <path id="Caminho_63" data-name="Caminho 63" d="M549.558,375.912a42.6,42.6,0,0,1,4.646.036c1.6.178,2.962,1.855,3.285,3.705a7.981,7.981,0,0,1,.12,1.432,49.945,49.945,0,0,1-.125,5.254,4.3,4.3,0,0,1-4.623,3.978h-3.3Z" transform="translate(-556.416 -327.387)" fill="#fff"/>
    <path id="Caminho_64" data-name="Caminho 64" d="M-47.39,389.8c-1.449,0-2.872.086-4.28-.021a4.344,4.344,0,0,1-3.676-4.1,50.169,50.169,0,0,1,0-6.192,4.365,4.365,0,0,1,4.6-4.163c1.1,0,2.208,0,3.358,0Z" transform="translate(0 -326.892)" fill="#fff"/>
    <path id="Caminho_65" data-name="Caminho 65" d="M450.216,618.247v-3.875c5.725-1.594,9.085-5.4,9.979-11.432l3.839-.181a16.082,16.082,0,0,1-3.138,8.911A16.291,16.291,0,0,1,450.216,618.247Z" transform="translate(-465.052 -536.063)" fill="#fff"/>
  </g>
</svg>
